<?xml version="1.0" standalone="no"?>
<!DOCTYPE svg PUBLIC "-//W3C//DTD SVG 20010904//EN"
 "http://www.w3.org/TR/2001/REC-SVG-20010904/DTD/svg10.dtd">
<svg version="1.0" xmlns="http://www.w3.org/2000/svg"
 width="512.000000pt" height="512.000000pt" viewBox="0 0 512.000000 512.000000"
 preserveAspectRatio="xMidYMid meet">
<metadata>
Created by potrace 1.14, written by Peter Selinger 2001-2017
</metadata>
<g transform="translate(0.000000,512.000000) scale(0.100000,-0.100000)"
fill="#000000" stroke="none">
<path d="M0 4420 l0 -700 2320 0 2320 0 0 -230 0 -230 -2320 0 -2320 0 0 -700
0 -700 2320 0 2320 0 0 -230 0 -230 -2320 0 -2320 0 0 -700 0 -700 2560 0
2560 0 0 235 0 235 -2320 0 -2320 0 0 230 0 230 2320 0 2320 0 0 700 0 700
-2320 0 -2320 0 0 230 0 230 2320 0 2320 0 0 700 0 700 -2320 0 -2320 0 0 230
0 230 2320 0 2320 0 0 235 0 235 -2560 0 -2560 0 0 -700z"/>
</g>
</svg>
