<svg xmlns="http://www.w3.org/2000/svg" width="1em" height="1em" viewBox="0 0 24 24"><path fill="currentColor" fill-rule="evenodd" d="M3 10c0-3.771 0-5.657 1.172-6.828S7.229 2 11 2h2c3.771 0 5.657 0 6.828 1.172S21 6.229 21 10v4c0 3.771 0 5.657-1.172 6.828S16.771 22 13 22h-2c-3.771 0-5.657 0-6.828-1.172S3 17.771 3 14zm3 2c0-1.414 0-2.121.44-2.56C6.878 9 7.585 9 9 9h6c1.414 0 2.121 0 2.56.44c.44.439.44 1.146.44 2.56v4c0 1.414 0 2.121-.44 2.56c-.439.44-1.146.44-2.56.44H9c-1.414 0-2.121 0-2.56-.44C6 18.122 6 17.415 6 16zm1-6.75a.75.75 0 0 0 0 1.5h5a.75.75 0 0 0 0-1.5z" clip-rule="evenodd"/></svg>