<svg xmlns="http://www.w3.org/2000/svg" width="1em" height="1em" viewBox="0 0 24 24"><path fill="currentColor" d="M12 7a5 5 0 1 0 0 10a5 5 0 0 0 0-10"/><path fill="currentColor" fill-rule="evenodd" d="M12 1a1 1 0 0 1 1 1v1a1 1 0 1 1-2 0V2a1 1 0 0 1 1-1M3.293 3.293a1 1 0 0 1 1.414 0l1.5 1.5a1 1 0 0 1-1.414 1.414l-1.5-1.5a1 1 0 0 1 0-1.414m17.414 0a1 1 0 0 1 0 1.414l-1.5 1.5a1 1 0 1 1-1.414-1.414l1.5-1.5a1 1 0 0 1 1.414 0M1 12a1 1 0 0 1 1-1h1a1 1 0 1 1 0 2H2a1 1 0 0 1-1-1m19 0a1 1 0 0 1 1-1h1a1 1 0 1 1 0 2h-1a1 1 0 0 1-1-1M6.207 17.793a1 1 0 0 1 0 1.414l-1.5 1.5a1 1 0 0 1-1.414-1.414l1.5-1.5a1 1 0 0 1 1.414 0m11.586 0a1 1 0 0 1 1.414 0l1.5 1.5a1 1 0 0 1-1.414 1.414l-1.5-1.5a1 1 0 0 1 0-1.414M12 20a1 1 0 0 1 1 1v1a1 1 0 1 1-2 0v-1a1 1 0 0 1 1-1" clip-rule="evenodd"/></svg>